# 3ds Max Wavefront OBJ Exporter v0.97b - (c)2007 guruware
# File Created: 23.04.2020 23:30:39

mtllib GrassYellow_LP.mtl

#
# object Plane001
#

v  8.4603 28.9083 10.2062
v  -11.9097 28.9083 -10.1638
v  -11.9097 -5.5026 -10.1638
v  8.4603 -5.5026 10.2062
v  8.5027 28.9083 -10.1638
v  -11.8672 28.9083 10.2062
v  -11.8672 -5.5026 10.2062
v  8.5027 -5.5026 -10.1638
v  -11.8885 -5.5026 -10.1850
v  -11.8885 28.9083 -10.1850
v  8.4815 28.9083 10.1850
v  8.4815 -5.5026 10.1850
v  -11.8885 -5.5026 10.1850
v  -11.8885 28.9083 10.1850
v  8.4815 28.9083 -10.1850
v  8.4815 -5.5026 -10.1850
# 16 vertices

vn -0.7071 -0.0000 0.7071
vn 0.7071 -0.0000 0.7071
vn 0.7071 0.0000 -0.7071
vn -0.7071 0.0000 -0.7071
vn 0.0000 -1.0000 -0.0000
vn 0.7071 0.0000 0.7071
vn -0.0000 1.0000 0.0000
vn 0.7071 -0.0000 -0.7071
vn -0.7071 0.0000 0.7071
# 9 vertex normals

vt 1.0000 1.0000 0.5000
vt 0.0000 1.0000 0.5000
vt 0.0000 0.0000 0.5000
vt 1.0000 0.0000 0.5000
# 4 texture coords

g Plane001
usemtl 07___Default
s 1
f 1/1/1 2/2/1 3/3/1 4/4/1 
f 5/1/2 6/2/2 7/3/2 8/4/2 
f 9/3/3 10/2/3 11/1/3 12/4/3 
f 13/3/4 14/2/4 15/1/4 16/4/4 
s 2
f 9/3/5 12/4/5 4/4/5 3/3/5 
s 4
f 12/4/6 11/1/6 1/1/6 4/4/6 
s 2
f 11/1/7 10/2/7 2/2/7 1/1/7 
s 4
f 10/2/4 9/3/4 3/3/4 2/2/4 
s 2
f 13/3/5 16/4/5 8/4/5 7/3/5 
s 4
f 16/4/8 15/1/8 5/1/8 8/4/8 
s 2
f 15/1/7 14/2/7 6/2/7 5/1/7 
s 4
f 14/2/9 13/3/9 7/3/9 6/2/9 
# 12 polygons

